# xmcd CD database file
#
# Track frame offsets:
#	150
#	71036
#	100694
#	141929
#	151341
#	179290
#
# Disc length: 2698 seconds
#
# Revision: 0
# Processed by: cddbd v1.5.2PL0 Copyright (c) Steve Scherf et al.
# Submitted via: CDex 1.51
#
DISCID=4c0a8806
DTITLE=Altz Meets Roland P. young - ESCAPE The Reconstruction of Isophonic Boogie Woogie
DYEAR=2009
DGENRE=Jazz
TTITLE0=Crystaliquid Sky
TTITLE1=Magenta Loops
TTITLE2=Velvet Dreamin'
TTITLE3=Fly Times
TTITLE4=Stillness with DJ Kensei(D'nB version)
TTITLE5=Funks
EXTD=YEAR: 2009
EXTT0=
EXTT1=
EXTT2=
EXTT3=
EXTT4=
EXTT5=
PLAYORDER=
